<?xml version="1.0" encoding="utf-8" standalone="yes"?>
<!DOCTYPE svg PUBLIC "-//W3C//DTD SVG 1.1//EN" "http://www.w3.org/Graphics/SVG/1.1/DTD/svg11.dtd">
<svg xmlns:svg="http://www.w3.org/2000/svg" xmlns="http://www.w3.org/2000/svg" width="197px" height="197px" version="1.1">
<style type="text/css">
path {fill:#000}
</style>
<rdf:RDF xmlns:rdf="http://www.w3.org/1999/02/22-rdf-syntax-ns#" xmlns="http://web.resource.org/cc/" xmlns:dc="http://purl.org/dc/elements/1.1/">
<Work>
	<license rdf:resource="http://creativecommons.org/licenses/publicdomain/"/>
	<dc:title>BlackCopyleft Icon</dc:title>
	<dc:type rdf:resource="http://purl.org/dc/dcmitype/StillImage"/>
</Work>
<License rdf:about="http://creativecommons.org/licenses/publicdomain/">
	<permits rdf:resource="http://web.resource.org/cc/Reproduction"/>
	<permits rdf:resource="http://web.resource.org/cc/Distribution"/>
	<permits rdf:resource="http://web.resource.org/cc/DerivativeWorks"/>
	<permits rdf:resource="http://web.resource.org/cc/CommercialUse"/>
</License>
</rdf:RDF>
  <path d="M98,0C 43.904,1.0880186e-14 9.2375326e-17,43.904 0,98C 0,152.096 43.904,196 98,196C 152.096,196 196,152.096 196,98C 196,43.904 152.096,-2.1667996e-14 98,0z M98,20C 141.056,20 176,54.944 176,98C 176,141.056 141.056,176 98,176C 54.944,176 20,141.056 20,98C 20,54.944 54.944,20 98,20z"/>
  <path d="M97.28125,43C 71.21839,43 49.38119,61.152555 43.71875,85.5 L 70,85.5C 74.741911,75.172905 85.17979,68 97.28125,68C 113.84124,67.999998 127.28125,81.44 127.28125,98C 127.28124,114.56 113.84125,128 97.28125,128C 85.17978,128 74.741911,120.8271 70,110.5 L 43.71875,110.5C 49.38118,134.84745 71.21838,153 97.28125,153C 127.64125,153 152.28124,128.36 152.28125,98C 152.28125,67.64 127.64124,42.999998 97.28125,43z"/>
</svg>
